<svg xmlns="http://www.w3.org/2000/svg" width="572" height="124" fill="none" viewBox="0 0 572 124"><path fill="#ececec" d="M320.79.422c11.718-1.679 27.632 1.695 36.629 9.342 9.208 7.827 11.133 16.949 12.395 28.284q-7.85.048-15.699-.095c-.874-5.874-2.175-11.425-6.416-15.81-9.437-10.576-33.396-11.276-43.249-1.282-7.136 7.239-6.515 20.792 3.744 25.44 14.665 6.647 31.009 7.251 45.534 13.09a41.9 41.9 0 0 1 13.692 9.077c5.616 5.66 7.291 12.73 7.139 20.482-.539 27.815-28.337 35.37-50.681 35.008-10.111-.819-24.188-4.678-31.651-11.635-10.023-9.345-12.014-17.618-12.677-30.61 3.479.311 11.475.002 15.289-.027.022.34.046.681.082 1.021.846 8.598 2.919 14.362 9.885 20.185 8.975 6.878 19.654 7.396 30.371 6.818 11.912-.642 24.702-8.744 23.232-22.088-2.855-17.401-26.712-18.115-40.334-21.645-14.2-3.68-32.229-8.85-34.601-25.913-1.298-9.334.581-18.33 6.701-25.635C298.129 4.94 308.878 1.664 320.79.422"/><path fill="#ececec" fill-rule="evenodd" d="M429.223 33.852c-4.474-.16-10.22-.366-14.277.135-16.58 2.128-27.431 10.599-28.027 28.158 4.555.393 9.543.392 14.13.32l.054-.271c1.028-5.192 1.771-8.945 6.612-12.225 5.962-3.836 14.884-3.72 21.636-2.797 3.271.447 8.365 3.479 9.885 6.395 7.246 13.904-6.675 15.88-16.21 17.232-.694.098-1.365.193-2.002.29l-1.769.264c-13.424 1.996-31.181 4.635-34.613 19.806-1.389 6.648-1.104 14.811 2.101 20.913 10.036 14.856 36.22 13.147 49.369 3.707a242 242 0 0 0 5.172-3.816c2.341 10.39 9.05 12.46 18.988 10.525 1.406-.275 2.848-.879 3.79-1.987.673-1.658.736-8.556.126-10.253-1.031-1.107-2.251-.962-3.451-.819-2.61.31-5.122.608-5.376-12.025-.107-5.33-.039-10.748.029-16.189.132-10.55.266-21.186-.872-31.426-1.399-10.327-14.937-16.158-23.842-15.886zm11.286 44.671.246.3.034.908c.174 4.641.41 10.932-.869 15.03-4.636 14.844-24.413 18.578-36.604 11.89-4.608-3.867-5.75-9.998-2.782-15.23 4.259-7.501 14.058-8.63 22.395-9.591 1.698-.196 3.336-.385 4.853-.619 4.615-.711 8.26-1.371 12.727-2.688m-266.982-31.45c-5.274-12.918-19.791-13.274-31.512-13.397-20.654.433-33.274 6.804-35.399 28.69q7.105.183 14.212.127c3-15.468 11.005-15.73 25.212-15.715 1.248.002 2.551.223 3.784.432l.145.025c8.278.982 16.314 14.356 7.26 19.755-3.943 2.351-9.925 3.174-14.856 3.852-.76.105-1.495.206-2.194.309-21.8 3.206-40.378 7.604-35.791 34.841 1.068 3.722 2.689 8.032 5.937 10.396 16.188 11.783 36.74 6.907 51.199-4.565 1.462 12.972 12.643 12.21 22.403 9.579l.36-11.965-.55.012c-2.259.048-4.207.089-6.528-.151-2.464-5.542-2.35-11.173-2.231-17.028.025-1.237.05-2.483.052-3.741l.026-25.375c.001-.637.007-1.3.013-1.98.042-4.632.091-10.099-1.542-14.101m-12.888 31.389.419.458q.01 1.125.028 2.196c.1 6.692.179 11.946-3.644 18.201-3.119 5.105-7.294 8.148-13.161 9.414-7.702 1.661-14.398 1.768-21.176-2.397-1.548-1.27-3.543-3.484-3.894-5.489-2.799-15.992 13.714-17.915 25.813-19.324 1.312-.152 2.573-.3 3.751-.457 3.868-.519 8.085-1.59 11.864-2.602" clip-rule="evenodd"/><path fill="#ececec" d="M511.644 33.981c9.289-1.124 20.839-.448 27.865 6.538 10.079 10.025 7.829 26.3 7.826 39.692l-.007 40.784q-7.013.15-14.021.001l.036-36.407c.021-7.022.158-14.13-.134-21.124-.244-5.826-3.815-13.494-9.586-15.627-5.499-2.033-14.577-1.17-19.89 1.042a28.4 28.4 0 0 0-5.531 4.432c-9.336 9.546-7.372 25.924-7.361 38.452q-.026 14.543.144 29.085c-4.273.237-9.871.369-14.101.057l-.064-52.799c-.003-10.33-.303-22.89.307-33.085 4.156.364 8.965.307 13.188.347l-.028 11.62c6.846-6.977 11.285-11.671 21.357-13.008m-270.903-.319 2.118.034c.746.918.593 12.913.612 14.979-8.775.671-15.681 1.204-22.254 7.843-9.903 10.004-8.517 24.86-8.519 37.767l.033 26.521a189 189 0 0 1-14.5.209l-.051-11.89-.02-46.634c-.002-8.681-.267-18.946.225-27.455 3.803.386 9.764.257 13.736.282.057 5.039.161 10.773-.272 15.74 8.48-11.643 14.245-16.788 28.892-17.396m28.411-.697.576.04c.79 1.51.591 13.8.599 16.315-4.749.12-9.811.044-14.584.056l-.695-.147c-.756-1.398-.276-13.664-.229-16.095q7.169.096 14.333-.17m285.699 71.93 16.143-.024q.074 7.802-.078 15.606l-16.217-.073q.28-7.753.152-15.509"/><path fill="#ececec" fill-rule="evenodd" d="M0 3.122q16.688-.286 33.38-.18c1.861 0 3.825-.03 5.856-.063 13.886-.22 30.96-.49 40.83 8.812 10.486 9.884 10.466 30.553.401 40.733-2.747 2.819-5.516 4.443-8.886 6.352 27.494 5.967 27.77 43.286 6.41 56.866-5.628 3.578-13.658 5.015-20.199 5.448-2.878-.222-6.22-.306-9.112-.266-6.224.087-12.53.016-18.852-.055-9.95-.112-19.935-.224-29.692.277zm41.288 64.574c-2.684.013-5.382.01-8.086.006-5.624-.008-11.271-.016-16.853.13q-.098 19.763.026 39.525 12.17.219 24.34.183c.97.001 2.002.013 3.078.026 8.958.105 21.103.247 27.21-5.645q.151-.147.299-.297c4.14-5.548 6.14-11.137 5.087-18.107-2.471-16.359-18.352-16.09-31.448-15.868-1.248.02-2.47.041-3.653.047M21.486 16.45h.028c9.066-.024 18.186-.048 27.09.064 10.445 0 23.26 3.762 23.113 16.417l-.01.895c-.056 5.832-.094 9.854-4.825 14.19-8.101 5.89-15.924 5.785-25.011 5.663-1.183-.016-2.39-.032-3.619-.035l-21.888-.077q-.135-18.553.04-37.104z" clip-rule="evenodd"/></svg>